# xmcd
#
# Track frame offsets:
#	150
#	13982
#	30675
#	43566
#	63344
#	76344
#	91907
#	108837
#	121384
#	138945
#	155994
#	171047
#	186885
#	200921
#	222007
#
# Disc length: 3174 seconds
#
# Revision: 1
# Processed by: cddbd v1.4PL0 Copyright (c) Steve Scherf et al.
# Submitted via: EasyCDDAExtractor 6.0.0.1
#
DISCID=cf0c640f
DTITLE=<<compilation disc>> - The Best of Country line dance
DYEAR=1995
DGENRE=Country
TTITLE0=It don't do the trick
TTITLE1=Ready to roll
TTITLE2=Take me as I am
TTITLE3=Trashy women
TTITLE4=On the rebound
TTITLE5=All I do is cry
TTITLE6=Honky tonk one man band
TTITLE7=What the cow girls doo
TTITLE8=Ghost town
TTITLE9=Back on the stage
TTITLE10=Lady luck
TTITLE11=A little piece of me
TTITLE12=Dear lord
TTITLE13=The old town hall
TTITLE14=Sweet destiny
EXTD=
EXTT0=
EXTT1=
EXTT2=
EXTT3=
EXTT4=
EXTT5=
EXTT6=
EXTT7=
EXTT8=
EXTT9=
EXTT10=
EXTT11=
EXTT12=
EXTT13=
EXTT14=
PLAYORDER=
